<svg width="81" height="80" viewBox="0 0 81 80" fill="none" xmlns="http://www.w3.org/2000/svg">
<path fill-rule="evenodd" clip-rule="evenodd" d="M69.0334 40.0001C69.0334 55.9059 56.1392 68.8001 40.2334 68.8001C24.3275 68.8001 11.4333 55.9059 11.4333 40.0001C11.4333 24.0943 24.3275 11.2001 40.2334 11.2001C48.6148 11.2001 56.16 14.7804 61.4231 20.4951L59.8629 21.9504C54.9894 16.6529 47.999 13.3335 40.2333 13.3335C25.5057 13.3335 13.5666 25.2726 13.5666 40.0002C13.5666 54.7277 25.5057 66.6668 40.2333 66.6668C54.9609 66.6668 66.8999 54.7277 66.8999 40.0002C66.8999 35.9021 65.9755 32.02 64.3239 28.5509L65.9544 27.0299C67.9239 30.9279 69.0334 35.3344 69.0334 40.0001Z" fill="#FAFAFA"/>
<path d="M21.1427 37.4026C22.125 37.0653 24.7033 37.5776 36.3691 45.2142C36.5744 45.3486 36.8536 45.3329 37.0347 45.1675L65.5759 19.1101C66.0546 18.6731 66.754 19.3014 66.3707 19.824L38.6687 57.5927C38.4654 57.8699 38.0574 57.8872 37.8314 57.6281L20.9858 38.3178C20.746 38.043 20.7978 37.5211 21.1427 37.4026Z" fill="#FAFAFA" stroke="#FAFAFA" stroke-width="0.536797"/>
</svg>
