<svg width="36" height="37" viewBox="0 0 36 37" fill="none" xmlns="http://www.w3.org/2000/svg">
<rect y="0.5" width="36" height="36" rx="10" fill="url(#paint0_linear_1173_4095)" fill-opacity="0.9"/>
<g clip-path="url(#clip0_1173_4095)">
<path d="M20.5417 12.6667C21.3556 12.8255 22.1036 13.2236 22.69 13.81C23.2764 14.3964 23.6745 15.1444 23.8333 15.9584M20.5417 9.33337C22.2327 9.52124 23.8096 10.2785 25.0135 11.4809C26.2174 12.6832 26.9767 14.2592 27.1667 15.95M26.3333 22.6V25.1C26.3343 25.3321 26.2867 25.5618 26.1937 25.7745C26.1008 25.9871 25.9644 26.178 25.7934 26.3349C25.6224 26.4918 25.4205 26.6113 25.2006 26.6856C24.9808 26.76 24.7478 26.7876 24.5167 26.7667C21.9523 26.4881 19.4892 25.6118 17.325 24.2084C15.3115 22.9289 13.6044 21.2219 12.325 19.2084C10.9166 17.0344 10.0402 14.5592 9.76665 11.9834C9.74583 11.7529 9.77321 11.5207 9.84707 11.3014C9.92092 11.0821 10.0396 10.8806 10.1956 10.7097C10.3516 10.5388 10.5415 10.4023 10.7531 10.3088C10.9648 10.2153 11.1936 10.1669 11.425 10.1667H13.925C14.3294 10.1627 14.7215 10.3059 15.0281 10.5697C15.3348 10.8334 15.535 11.1996 15.5917 11.6C15.6972 12.4001 15.8929 13.1856 16.175 13.9417C16.2871 14.24 16.3114 14.5641 16.2449 14.8758C16.1784 15.1874 16.024 15.4735 15.8 15.7L14.7417 16.7584C15.9279 18.8447 17.6554 20.5721 19.7417 21.7584L20.8 20.7C21.0266 20.476 21.3126 20.3216 21.6243 20.2551C21.9359 20.1887 22.26 20.2129 22.5583 20.325C23.3144 20.6072 24.0999 20.8029 24.9 20.9084C25.3048 20.9655 25.6745 21.1694 25.9388 21.4813C26.203 21.7932 26.3435 22.1914 26.3333 22.6Z" stroke="#FAFAFA" stroke-width="2" stroke-linecap="round" stroke-linejoin="round"/>
</g>
<defs>
<linearGradient id="paint0_linear_1173_4095" x1="13.6484" y1="65.9146" x2="49.3215" y2="59.443" gradientUnits="userSpaceOnUse">
<stop stop-color="#E17F1A"/>
<stop offset="1" stop-color="#D63727"/>
</linearGradient>
<clipPath id="clip0_1173_4095">
<rect width="20" height="20" fill="white" transform="translate(8 8.5)"/>
</clipPath>
</defs>
</svg>
