<svg width="21" height="20" viewBox="0 0 21 20" fill="none" xmlns="http://www.w3.org/2000/svg">
<path d="M12.7581 4.66659C13.572 4.82539 14.3201 5.22347 14.9065 5.80986C15.4929 6.39626 15.8909 7.14431 16.0497 7.95825M12.7581 1.33325C14.4491 1.52112 16.0261 2.2784 17.23 3.48076C18.4338 4.68312 19.1931 6.25909 19.3831 7.94992M18.5497 14.5999V17.0999C18.5507 17.332 18.5032 17.5617 18.4102 17.7744C18.3172 17.987 18.1808 18.1779 18.0098 18.3348C17.8388 18.4917 17.6369 18.6112 17.417 18.6855C17.1972 18.7599 16.9642 18.7875 16.7331 18.7666C14.1688 18.488 11.7056 17.6117 9.54142 16.2083C7.52794 14.9288 5.82086 13.2217 4.54142 11.2083C3.13306 9.03426 2.25662 6.55908 1.98308 3.98325C1.96226 3.75281 1.98964 3.52055 2.0635 3.30127C2.13735 3.08199 2.25606 2.88049 2.41205 2.7096C2.56805 2.53871 2.75792 2.40218 2.96957 2.30869C3.18123 2.2152 3.41003 2.1668 3.64142 2.16659H6.14142C6.54584 2.1626 6.93791 2.30582 7.24455 2.56953C7.55119 2.83324 7.75148 3.19946 7.80808 3.59992C7.9136 4.39997 8.10929 5.18552 8.39142 5.94159C8.50354 6.23986 8.5278 6.56401 8.46134 6.87565C8.39488 7.18729 8.24047 7.47334 8.01642 7.69992L6.95808 8.75825C8.14438 10.8445 9.87179 12.572 11.9581 13.7583L13.0164 12.6999C13.243 12.4759 13.529 12.3215 13.8407 12.255C14.1523 12.1885 14.4765 12.2128 14.7747 12.3249C15.5308 12.607 16.3164 12.8027 17.1164 12.9083C17.5212 12.9654 17.8909 13.1693 18.1552 13.4812C18.4195 13.7931 18.5599 14.1912 18.5497 14.5999Z" stroke="#FAFAFA" stroke-width="2" stroke-linecap="round" stroke-linejoin="round"/>
</svg>
