<svg width="81" height="80" viewBox="0 0 81 80" fill="none" xmlns="http://www.w3.org/2000/svg">
<path fill-rule="evenodd" clip-rule="evenodd" d="M39.3079 21.7627V32.6506H40.5001H41.6923V21.7627V10.8749H40.5001H39.3079V21.7627ZM35.7313 14.9887C31.597 15.7765 27.7469 17.5757 24.3204 20.3214C22.8795 21.476 20.8728 23.6329 19.6567 25.3341C18.231 27.3284 16.799 30.2099 16.1222 32.4465C15.7858 33.558 15.2598 35.8896 15.2598 36.2691C15.2598 36.3 15.8039 36.3251 16.469 36.3249L17.6783 36.3245L17.8396 35.4913C18.906 29.9835 22.081 24.9619 26.6701 21.5246C29.5134 19.3949 32.8541 17.9194 36.2252 17.3043L36.8554 17.1893V16.0055V14.8217L36.7021 14.8273C36.6178 14.8304 36.181 14.903 35.7313 14.9887ZM44.1447 15.999V17.1763L45.3214 17.4258C53.2063 19.0982 59.6906 24.8368 62.3322 32.4805C62.6673 33.4501 63.034 34.8219 63.1916 35.6958L63.3051 36.3253H64.5227C65.1924 36.3253 65.7403 36.3014 65.7403 36.2721C65.7403 36.0867 65.355 34.2394 65.1624 33.5012C62.8569 24.6666 55.6745 17.5643 46.7902 15.334C45.9088 15.1127 44.4574 14.8217 44.235 14.8217C44.1635 14.8217 44.1447 15.067 44.1447 15.999ZM36.1327 27.4065C33.2935 28.4051 30.896 30.2888 29.2622 32.8047C28.7438 33.6031 28.2002 34.7071 27.9025 35.5663C27.7683 35.9536 27.6585 36.2834 27.6585 36.2993C27.6585 36.3153 28.2303 36.32 28.9291 36.3098L30.1996 36.2912L30.2837 36.0484C30.4562 35.5505 30.93 34.6368 31.34 34.0111C32.5663 32.1401 34.3583 30.6696 36.4451 29.8219L36.8213 29.669L36.8399 28.4378C36.8544 27.4758 36.8395 27.2073 36.7718 27.2094C36.7241 27.211 36.4365 27.2996 36.1327 27.4065ZM44.1447 28.4351V29.6635L44.3661 29.7392C44.9137 29.9263 46.3486 30.7176 46.9379 31.1573C48.0214 31.9661 49.0041 33.0024 49.6857 34.0551C50.0002 34.5408 50.5991 35.7097 50.7394 36.1119L50.8139 36.3253H52.0823H53.3508L53.3045 36.1722C53.1346 35.611 52.7257 34.6172 52.4087 33.9951C51.0671 31.363 49.0183 29.3585 46.2761 27.9953C45.74 27.7288 44.3697 27.2067 44.2063 27.2067C44.1719 27.2067 44.1447 27.7493 44.1447 28.4351ZM39.5944 36.4993C38.7386 36.7293 37.8926 37.3406 37.4334 38.0605C36.7542 39.1254 36.6843 40.4514 37.2457 41.6204C37.4975 42.145 38.265 42.913 38.8133 43.1894C40.2312 43.904 41.8787 43.67 42.9675 42.5992C45.2862 40.3188 43.6949 36.3696 40.4687 36.3978C40.1862 36.4003 39.7928 36.4459 39.5944 36.4993ZM11.3086 39.9999V41.1568H22.2426H33.1767V39.9999V38.8431H22.2426H11.3086V39.9999ZM47.8235 39.9999V41.1568H58.7575H69.6915V39.9999V38.8431H58.7575H47.8235V39.9999ZM15.2598 43.7307C15.2598 43.9228 15.5672 45.4326 15.772 46.2466C16.6787 49.8505 18.375 53.1859 20.8286 56.1893C21.5789 57.1078 23.3268 58.8523 24.2523 59.6063C27.5878 62.3237 31.2987 64.0973 35.4048 64.9365C35.8467 65.0268 36.3538 65.1216 36.5318 65.1472L36.8554 65.1936V63.9981V62.8026L36.5999 62.7595C35.11 62.5083 32.9018 61.8585 31.4882 61.2554C24.5794 58.3078 19.5392 52.2265 17.9187 44.8829C17.8052 44.3686 17.7123 43.8863 17.7123 43.8112C17.7123 43.6795 17.6684 43.6746 16.4861 43.6746C15.8116 43.6746 15.2598 43.6998 15.2598 43.7307ZM27.6748 43.7581C27.6923 43.8057 27.7922 44.103 27.8968 44.4186C28.1644 45.2269 29.008 46.8579 29.5504 47.6155C30.8617 49.4475 32.5042 50.8694 34.4552 51.8616C35.1322 52.206 36.2265 52.6507 36.668 52.7611L36.8554 52.8079V51.5698V50.3316L36.634 50.2537C36.5122 50.2109 36.0294 49.9846 35.561 49.7507C33.3293 48.6365 31.4049 46.5936 30.4463 44.321L30.188 43.7086L28.9154 43.6901C27.9079 43.6754 27.6494 43.6896 27.6748 43.7581ZM50.6978 43.93C50.6557 44.0704 50.4818 44.4715 50.3114 44.8213C49.2891 46.9194 47.5313 48.6995 45.4391 49.7553C44.9708 49.9917 44.488 50.2191 44.3661 50.2607L44.1447 50.3363V51.5721V52.8079L44.3321 52.7611C44.4351 52.7353 44.8107 52.6057 45.1666 52.4729C48.7523 51.1359 51.6992 48.1915 53.0187 44.6273C53.1504 44.2717 53.279 43.9119 53.3045 43.8277L53.3508 43.6746H52.0626H50.7744L50.6978 43.93ZM63.2505 43.9298C62.1596 50.3308 58.2952 56.067 52.6944 59.5987C50.3369 61.0852 47.0997 62.3245 44.4343 62.7609L44.1447 62.8084V64.0009V65.1936L44.4683 65.1472C45.0456 65.0643 46.4085 64.7723 47.1763 64.567C49.9242 63.8322 52.7754 62.4892 55.181 60.7965C58.174 58.6904 60.8868 55.697 62.7115 52.4869C64.0688 50.0994 65.1001 47.2725 65.5665 44.6613C65.6267 44.3245 65.6929 43.9646 65.7135 43.8617L65.7511 43.6746H64.5226H63.294L63.2505 43.9298ZM39.3079 58.2134V69.125H40.5001H41.6923V58.2184V47.3118L40.5001 47.3068L39.3079 47.3017V58.2134Z" fill="#FAFAFA"/>
</svg>
