<svg width="81" height="80" viewBox="0 0 81 80" fill="none" xmlns="http://www.w3.org/2000/svg">
<path d="M40.269 42.3319L40.4643 17.7049L43.44 17.8687L46.907 18.4966L49.9918 19.6704L52.8856 20.9808L40.269 42.3319Z" fill="#FAFAFA" fill-opacity="0.5"/>
<path fill-rule="evenodd" clip-rule="evenodd" d="M36.2333 8.90591C36.2333 8.55283 36.5195 8.2666 36.8726 8.2666H44.1273C44.4804 8.2666 44.7666 8.55283 44.7666 8.90591V13.0666H41.5666V16.2884C46.7381 16.5004 51.5138 18.2465 55.4509 21.0837L56.6906 19.6015L55.2633 18.4077L56.6439 16.7569C56.8704 16.4861 57.2736 16.4502 57.5444 16.6767L60.8458 19.4379C61.1167 19.6644 61.1526 20.0676 60.9261 20.3384L59.5455 21.9891L58.118 20.7953L56.9211 22.2264C62.5316 26.9224 66.0999 33.9778 66.0999 41.8666C66.0999 56.0051 54.6384 67.4666 40.4999 67.4666C26.3614 67.4666 14.8999 56.0051 14.8999 41.8666C14.8999 33.9678 18.4772 26.9045 24.1001 22.2085L22.9181 20.7953L24.3455 19.6015L25.5716 21.0674C29.5043 18.2398 34.2717 16.4999 39.4333 16.2884V13.0666H36.2333V8.90591ZM20.11 20.3384C19.8835 20.0676 19.9194 19.6644 20.1903 19.4379L23.4917 16.6767C23.7625 16.4502 24.1657 16.4861 24.3922 16.7569L25.7728 18.4077L21.4906 21.9891L20.11 20.3384ZM39.4333 65.8139V62.1333H41.5667V65.8139C45.4879 65.65 49.1707 64.5868 52.4045 62.8301L51.427 61.2723L52.3528 60.6914L53.3539 62.2868C60.0717 58.2416 64.6424 51.1206 65.0094 42.9333H60.7666L60.7666 40.8H65.0094C64.6181 32.0687 59.4458 24.5502 51.9872 20.6816L51.0694 22.4437L50.1 21.9388L51.0057 20.1998C48.1239 18.8636 44.9332 18.0601 41.5667 17.9194V22.1333H39.4333V17.9194C35.98 18.0637 32.7115 18.9055 29.7718 20.3043L30.6231 21.9388L29.6537 22.4437L28.7954 20.7957C25.2106 22.7005 22.1661 25.4531 19.9438 28.778L21.5936 29.8629L20.9931 30.7761L19.3572 29.7004C17.3762 32.9797 16.1715 36.76 15.9905 40.8H20.2333V42.9333H15.9905C16.3334 50.5837 20.3468 57.303 26.3526 61.4518L27.4183 59.9849L28.3026 60.6273L27.2665 62.0535C30.8045 64.2721 34.9641 65.6271 39.4333 65.8139ZM65.0332 41.8218V41.9114C65.0333 41.8965 65.0333 41.8816 65.0333 41.8666C65.0333 41.8517 65.0333 41.8368 65.0332 41.8218ZM20.5411 51.4575L20.0819 50.4657L18.0981 51.3841L18.5573 52.3759L20.5411 51.4575ZM59.7927 52.6504L60.3182 51.692L62.235 52.7429L61.7096 53.7013L59.7927 52.6504ZM59.1295 29.8629L59.73 30.7761L61.5566 29.5751L60.956 28.6618L59.1295 29.8629ZM42.6333 41.8667C42.6333 43.0449 41.6782 44 40.5 44C39.3218 44 38.3667 43.0449 38.3667 41.8667C38.3667 40.6885 39.3218 39.7333 40.5 39.7333C41.6782 39.7333 42.6333 40.6885 42.6333 41.8667Z" fill="#FAFAFA"/>
</svg>
