<svg width="80" height="80" viewBox="0 0 80 80" fill="none" xmlns="http://www.w3.org/2000/svg">
<path fill-rule="evenodd" clip-rule="evenodd" d="M12 24.2604H55.2V42.927H56.2667V29.0604C62.7229 29.0604 65.951 29.0604 68.4978 30.114C71.9013 31.5221 74.6051 34.2259 76.0131 37.6294C77.0667 40.1761 77.0667 43.4042 77.0667 49.8604V51.4604H70.0943C70.1201 51.1977 70.1334 50.9308 70.1334 50.6604C70.1334 46.6839 67.268 43.4604 63.7334 43.4604C60.1988 43.4604 57.3334 46.6839 57.3334 50.6604C57.3334 50.9308 57.3466 51.1977 57.3725 51.4604H56.2667V51.4604H45.6L31.6943 51.4604C31.7201 51.1977 31.7334 50.9308 31.7334 50.6604C31.7334 46.6839 28.868 43.4604 25.3334 43.4604C21.7987 43.4604 18.9334 46.6839 18.9334 50.6604C18.9334 50.9308 18.9466 51.1977 18.9724 51.4604L12 51.4604V42.927H6.66664V40.7937H12V38.6604H9.33339V36.5271H12V35.4604H6.66664V33.327H12V31.1937H2.93335V29.0604H12V24.2604ZM26.1776 54.5939C28.7219 54.1893 30.6667 51.9853 30.6667 49.327C30.6667 46.3815 28.2789 43.9937 25.3334 43.9937C22.3878 43.9937 20 46.3815 20 49.327C20 51.946 21.8878 54.1241 24.3769 54.5748C20.4566 54.5313 16.2509 54.4718 11.7427 54.3936L11.7242 55.4605C57.8499 56.2604 72.3818 55.1067 73.6755 54.9219L73.5246 53.8656C73.0764 53.9296 70.7644 54.1324 65.6157 54.3187C67.6324 53.5579 69.0667 51.61 69.0667 49.327C69.0667 46.3815 66.6789 43.9937 63.7334 43.9937C60.7879 43.9937 58.4001 46.3815 58.4001 49.327C58.4001 51.7285 59.9872 53.7592 62.1698 54.4275C54.8006 54.6295 43.3161 54.7669 26.1776 54.5939ZM65.8667 31.1937C66.3538 31.1937 66.8314 31.2345 67.2963 31.3129L73.7969 36.5698C74.186 37.5464 74.4 38.6117 74.4 39.727H57.3333V31.1937H65.8667ZM29.713 34.2309C30.414 32.9691 31.1745 32.0713 31.9944 31.5376C32.8199 31.0006 33.549 30.8165 34.1817 30.9852C34.8143 31.1539 35.2265 31.4834 35.4182 31.9739C35.6098 32.4643 35.5975 33.1152 35.3811 33.9268C35.1658 34.734 34.7442 35.6754 34.1162 36.751C33.4882 37.8267 32.7857 38.6558 32.0088 39.2384C31.2319 39.821 30.5424 40.0321 29.9403 39.8715C29.3382 39.7109 28.9118 39.3823 28.661 38.8855C28.4103 38.3886 28.3925 37.7366 28.6078 36.9295C28.8242 36.1179 29.1926 35.2184 29.713 34.2309ZM30.7016 34.782C30.149 35.7328 29.7924 36.6145 29.6318 37.4269C29.4768 38.2361 29.6261 38.7012 30.0799 38.8222C30.538 38.9444 31.0151 38.8028 31.511 38.3977C32.0069 37.9925 32.5602 37.2497 33.1707 36.1694C33.8258 34.9748 34.2237 34.0084 34.3645 33.2701C34.5096 32.5331 34.3553 32.104 33.9015 31.983C33.4478 31.862 32.9652 32.0067 32.4539 32.4172C31.9425 32.8276 31.3584 33.6158 30.7016 34.782ZM36.4222 39.5774L37.5883 39.8884L37.1022 41.7113L38.3086 42.033L38.7947 40.2101L41.0062 40.7998L41.2385 39.9286L39.027 39.3389L39.3451 38.146L40.0421 38.3318L40.471 38.4462C41.2662 38.6583 41.9629 38.7196 42.561 38.6303C43.168 38.5433 43.6672 38.3223 44.0586 37.9672C44.4524 37.6033 44.7303 37.1175 44.8923 36.5098C45.133 35.6073 45.0305 34.843 44.5849 34.217C44.1483 33.5932 43.3447 33.1253 42.1741 32.8132L39.6543 32.1412L38.4104 36.8056L37.2443 36.4946L36.9727 37.5133L38.1388 37.8243L37.8207 39.0172L36.6546 38.7062L36.4222 39.5774ZM40.5684 37.3811L40.3137 37.3132L39.6167 37.1273L40.5889 33.4816L41.7952 33.8032C42.5905 34.0153 43.1365 34.3188 43.4331 34.7138C43.7298 35.1087 43.7971 35.61 43.6351 36.2176C43.5112 36.6823 43.3107 37.0213 43.0337 37.2345C42.7567 37.4478 42.4106 37.5613 41.9954 37.575C41.5891 37.591 41.1134 37.5264 40.5684 37.3811Z" fill="#FAFAFA"/>
</svg>
